<?xml version="1.0" encoding="UTF-8" standalone="no"?>
<!-- Created with Inkscape (http://www.inkscape.org/) -->

<svg
   version="1.1"
   id="svg1"
   width="16"
   height="16"
   viewBox="0 0 16 16"
   sodipodi:docname="reload_16.svg"
   inkscape:version="1.4.3 (0d15f75, 2025-12-25)"
   inkscape:export-filename="reload_16.png"
   inkscape:export-xdpi="96"
   inkscape:export-ydpi="96"
   xml:space="preserve"
   xmlns:inkscape="http://www.inkscape.org/namespaces/inkscape"
   xmlns:sodipodi="http://sodipodi.sourceforge.net/DTD/sodipodi-0.dtd"
   xmlns="http://www.w3.org/2000/svg"
   xmlns:svg="http://www.w3.org/2000/svg"><defs
     id="defs1"><inkscape:path-effect
       effect="bspline"
       id="path-effect16"
       is_visible="true"
       lpeversion="1.3"
       weight="33.333333"
       steps="2"
       helper_size="0"
       apply_no_weight="true"
       apply_with_weight="true"
       only_selected="false"
       uniform="false" /><inkscape:path-effect
       effect="bspline"
       id="path-effect11"
       is_visible="true"
       lpeversion="1.3"
       weight="33.333333"
       steps="2"
       helper_size="0"
       apply_no_weight="true"
       apply_with_weight="true"
       only_selected="false"
       uniform="false" /><inkscape:path-effect
       effect="bspline"
       id="path-effect9"
       is_visible="true"
       lpeversion="1.3"
       weight="33.333333"
       steps="2"
       helper_size="0"
       apply_no_weight="true"
       apply_with_weight="true"
       only_selected="false"
       uniform="false" /><inkscape:path-effect
       effect="bspline"
       id="path-effect8"
       is_visible="true"
       lpeversion="1.3"
       weight="33.333333"
       steps="2"
       helper_size="0"
       apply_no_weight="true"
       apply_with_weight="true"
       only_selected="false"
       uniform="false" /><inkscape:path-effect
       effect="powerstroke"
       message=""
       id="path-effect7"
       is_visible="true"
       lpeversion="1.3"
       scale_width="1"
       interpolator_type="CentripetalCatmullRom"
       interpolator_beta="0.75"
       start_linecap_type="butt"
       end_linecap_type="butt"
       offset_points="1.5529326,0.57215836"
       linejoin_type="spiro"
       miter_limit="4"
       not_jump="true"
       sort_points="true" /><inkscape:path-effect
       effect="bspline"
       id="path-effect8-4"
       is_visible="true"
       lpeversion="1.3"
       weight="33.333333"
       steps="2"
       helper_size="0"
       apply_no_weight="true"
       apply_with_weight="true"
       only_selected="false"
       uniform="false" /><inkscape:path-effect
       effect="bspline"
       id="path-effect8-5"
       is_visible="true"
       lpeversion="1.3"
       weight="33.333333"
       steps="2"
       helper_size="0"
       apply_no_weight="true"
       apply_with_weight="true"
       only_selected="false"
       uniform="false" /><inkscape:path-effect
       effect="bspline"
       id="path-effect11-1"
       is_visible="true"
       lpeversion="1.3"
       weight="33.333333"
       steps="2"
       helper_size="0"
       apply_no_weight="true"
       apply_with_weight="true"
       only_selected="false"
       uniform="false" /><clipPath
       clipPathUnits="userSpaceOnUse"
       id="clipPath57"><path
         id="path58"
         style="fill:#ff0000;fill-opacity:1;fill-rule:nonzero;stroke:none"
         d="M 2,2 V 14 H 14 V 8.2324219 c -6.92e-4,-0.00101 -0.003,-0.00452 -0.0039,-0.00586 -0.009,-0.013498 -0.01718,-0.02703 -0.02539,-0.041016 v -0.00195 l -0.002,-0.00195 -0.002,-0.00195 c -0.0035,-0.00453 -0.0071,-0.011461 -0.01172,-0.017578 l -0.002,-0.00195 v -0.00195 h -0.002 l -0.002,-0.00195 -0.002,-0.00195 v -0.00195 h -0.002 v -0.00195 c -4.94e-4,-1.736e-4 -0.0015,1.742e-4 -0.002,0 l -0.002,-0.00195 c -0.01125,-0.00402 -0.02191,-0.00754 -0.0332,-0.011719 -0.02261,-0.0091 -0.04448,-0.020623 -0.06641,-0.03125 -0.02001,-0.00981 -0.02394,-0.012308 -0.03906,-0.017578 -0.02507,-0.011591 -0.0167,-0.00663 -0.0332,-0.015625 l -0.002,-0.00195 -0.002,-0.00195 h -0.002 -0.002 v -0.00195 h -0.002 -0.002 v -0.00195 h -0.002 c -0.01316,-0.00384 -0.02591,-0.00781 -0.03906,-0.011719 -0.0049,-0.00145 -0.01072,-0.00249 -0.01563,-0.00391 -0.0083,-0.00252 -0.01716,-0.00512 -0.02539,-0.00781 -0.02348,-5.6e-6 -0.04712,2.3e-6 -0.07031,0 -0.02455,-2.2e-6 -0.04772,3e-7 -0.07227,0 h -0.07031 -0.06836 -0.05859 -0.05859 -0.002 c -0.03212,0.021989 -0.0208,0.012615 -0.07031,0.033203 -0.0038,0.00125 -0.0091,0.00321 -0.01172,0.00391 -0.0074,0.00199 -0.01104,0.0027 -0.01563,0.00391 h -0.002 -0.002 c -0.0014,3.664e-4 -0.0028,0.00154 -0.0039,0.00195 h -0.002 l -0.002,0.00195 h -0.002 c -0.0029,0.00119 -0.0031,0.0019 -0.01367,0.00586 -0.0015,5.9e-4 -0.0043,0.00141 -0.0059,0.00195 -0.0099,0.0028 -0.01929,0.00785 -0.02734,0.011719 l -0.002,0.00195 h -0.002 l -0.002,0.00195 -0.002,0.00195 -0.002,0.00195 -0.002,0.00195 c -9.61e-4,8.303e-4 -0.0048,0.00306 -0.0059,0.00391 -0.0013,0.00119 -0.0026,0.00272 -0.0039,0.00391 -0.0015,0.00155 -0.0058,0.00578 -0.0078,0.00781 l -0.002,0.00195 -0.002,0.00195 c -0.0034,0.00277 -0.0064,0.00505 -0.0098,0.00781 0.0031,-0.00262 -0.01072,0.00863 -0.0098,0.00781 -0.0045,0.00376 -0.0092,0.00773 -0.01758,0.013672 h -0.002 c -0.0018,0.00142 -0.005,0.00379 -0.0078,0.00586 -0.0073,0.00529 -0.01397,0.011111 -0.02148,0.015625 -0.0034,0.3701127 -0.308143,0.4166447 -0.371094,0.050781 -0.0011,-0.00622 -0.0073,-0.025546 -0.0098,-0.039063 -0.0053,-0.026048 -0.0058,-0.05166 -0.0059,-0.078125 0.0015,-0.031186 0.01021,-0.060348 0.02344,-0.087891 -0.01972,-0.00102 -0.03911,-0.00229 -0.05859,-0.00391 -0.03602,-0.00474 -0.07165,-0.013371 -0.107422,-0.019531 -0.485908,-0.083611 -0.436879,-0.5494588 -0.002,-0.5332031 0.029,0.00108 0.05941,0.00414 0.0918,0.00977 0.02547,0.00443 0.05094,0.00995 0.07617,0.015625 0.02496,0.00106 0.05125,-2.622e-4 0.07617,0.00195 -0.0024,-0.089556 -0.0099,-0.1565211 -0.01758,-0.2070312 -0.01307,0.00194 -0.02969,0.00376 -0.04883,0.00586 -0.0219,0.0024 -0.04247,0.00541 -0.06445,0.00391 -0.167008,-0.011396 -0.321376,-0.066622 -0.279297,-0.3554687 0.01532,-0.1051588 0.168284,-0.1317457 0.251953,-0.1972657 0.0118,-0.00331 0.02333,-0.00657 0.03516,-0.00977 -0.01584,-0.011622 -0.02926,-0.026028 -0.04297,-0.041016 h -0.002 c -0.02965,0.020262 -0.203999,0.140701 -0.263672,0.1269531 h -0.002 l -0.002,-0.00195 h -0.002 -0.002 v -0.00195 h -0.002 l -0.002,-0.00195 v -0.00195 h -0.002 v -0.00195 -0.00195 c -0.08455,-0.1468075 -0.08854,-0.32671 -0.132812,-0.4902343 0.01131,-0.00871 0.02185,-0.016734 0.0332,-0.025391 C 11.999726,6.1486215 11.891781,6.1154909 11.875,6.0683594 11.8689,6.0450554 11.8818,6.0143534 11.91797,5.9667969 11.5789,6.1693125 11.32532,5.8580862 11.595704,5.5625 c -0.03758,-0.05293 -0.05655,-0.1270938 -0.04297,-0.2167969 -0.09434,-0.1281788 -0.0363,-0.3071079 0.173828,-0.3691406 0.0049,-0.00747 0.01062,-0.01408 0.01563,-0.021484 0.08824,-0.1312737 0.182224,-0.261279 0.298828,-0.3691406 0.02227,-0.019353 0.04344,-0.040079 0.06641,-0.058594 0.09355,-0.075405 0.200134,-0.1319662 0.3125,-0.1738282 0.03697,-0.013982 0.11524,-0.917969 0.111328,-0.041016 0.202247,0.145191 0.006,-0.850251 0.0039,-0.876953 -0.02035,-0.2621734 0.09442,0.3918728 0.226563,0.3808593 0.132143,-0.011013 0.273722,0.1089882 0.294922,0.3710938 4.16e-4,0.00522 0.0016,0.010428 0.002,0.015625 0.02042,-0.00165 0.0401,-0.00298 0.06055,-0.00391 0.307637,-0.013925 0.435554,0.1707277 0.382812,0.3261718 0.228293,0.00546 0.348503,0.1203617 0.359375,0.2421875 0.05738,0.011061 0.103136,0.033377 0.138672,0.0625 V 2 Z m 12,3.1699219 c -0.05493,0.054109 -0.13873,0.1002801 -0.253906,0.125 -0.0082,0.00176 -0.01719,0.00414 -0.02539,0.00586 0.01067,0.010466 0.02337,0.022232 0.03711,0.037109 0.02057,0.022272 0.03787,0.050197 0.04297,0.080078 0.0108,0.062847 0.0069,0.1278282 0.002,0.1914062 -0.0011,0.014573 -0.0052,0.032478 -0.01367,0.050781 0.01885,0.022915 0.03799,0.049139 0.06055,0.078125 0.0018,0.00236 0.0044,0.00533 0.0059,0.00781 0.04922,0.014807 0.09957,0.030884 0.144531,0.054687 z"
         sodipodi:nodetypes="ccccccccccccccccccccccccccccccccccccsscccccccccccccccccccccccccccccccccccccccccscccssscccccccccccccccccccccccccscccscccccccccscsccccccc" /></clipPath></defs><sodipodi:namedview
     id="namedview1"
     pagecolor="#ffffff"
     bordercolor="#000000"
     borderopacity="0.25"
     inkscape:showpageshadow="2"
     inkscape:pageopacity="0.0"
     inkscape:pagecheckerboard="0"
     inkscape:deskcolor="#d1d1d1"
     showguides="false"
     showgrid="true"
     inkscape:zoom="16"
     inkscape:cx="5.125"
     inkscape:cy="9.75"
     inkscape:window-width="2100"
     inkscape:window-height="1234"
     inkscape:window-x="-9"
     inkscape:window-y="-9"
     inkscape:window-maximized="1"
     inkscape:current-layer="layer2"><inkscape:grid
       id="grid8"
       units="px"
       originx="0"
       originy="0"
       spacingx="1"
       spacingy="1"
       empcolor="#0099e5"
       empopacity="0.30196078"
       color="#0099e5"
       opacity="0.14901961"
       empspacing="5"
       enabled="true"
       visible="true" /></sodipodi:namedview><g
     inkscape:groupmode="layer"
     id="layer1"
     inkscape:label="close"
     sodipodi:insensitive="true"
     style="display:none"><path
       style="fill:#000080;stroke:#000080"
       d="m 14.998723,1.0217114 c 0,0 -14.01788009,14.0178796 -14.01788009,14.0178796"
       id="path8"
       inkscape:path-effect="#path-effect8"
       inkscape:original-d="M 14.998723,1.0217114 0.98084291,15.039591"
       transform="matrix(0.71337463,0,0,0.71337465,2.3002916,2.271137)" /><path
       style="fill:#000080;stroke:#000080"
       d="m 14.998723,1.0217114 c 0,0 -14.01788009,14.0178796 -14.01788009,14.0178796"
       id="path8-1"
       inkscape:path-effect="#path-effect8-5"
       inkscape:original-d="M 14.998723,1.0217114 0.98084291,15.039591"
       transform="matrix(0,0.71337463,-0.71337465,0,13.728863,2.3002915)" /></g><g
     inkscape:groupmode="layer"
     id="layer2"
     inkscape:label="reload"><circle
       style="fill:none;stroke:#000080"
       id="path9"
       r="5.5"
       cy="8"
       cx="8"
       clip-path="url(#clipPath57)" /><path
       style="fill:none;stroke:#000080"
       d="m 0,-0.98971832 c 0.15411672,0 0.30823344,0 0.54061256,0 0.23237912,0 0.54302064,0 0.74770684,0 0.2046863,0 0.3034174,0 0.3708434,0 0.067426,0 0.103547,0 0.1240177,0 0.020471,0 0.025281,0 0.0313,0 0.00602,0 0.013248,0 0.018064,-0.001205 0.00482,-0.001205 0.00722,-0.003615 0.012036,-0.004817 0.00481,-0.001202 0.01204,-0.001202 0.018062,-0.001202 0.00602,0 0.010833,0 0.032506,0 0.021674,0 0.060202,0 0.079467,0 C 1.9938807,-0.99694232 2,0.9824941 2,0.9824941"
       id="path16"
       inkscape:path-effect="#path-effect16"
       inkscape:original-d="m 0,-0.98971832 c 0.15411672,0 0.30823344,0 0.46235016,0 0.31064152,0 0.62128304,0 0.93192454,0 0.098731,0 0.1974621,0 0.2961931,0 0.036121,0 0.072242,0 0.1083633,0 0.00482,0 0.00963,0 0.014448,0 0.00722,0 0.014449,0 0.021673,0 0.00241,-0.002408 0.00482,-0.004816 0.00722,-0.007224 0.00722,0 0.014448,0 0.021673,0 0.00482,0 0.00963,0 0.014448,0 0.038529,0 0.077058,0 0.1155876,0 L 2,0.9824941"
       transform="rotate(89.27979,4.3341342,7.1303426)" /></g></svg>
